<?xml version="1.0" encoding="utf-8"?>
<!-- Generator: Adobe Illustrator 21.0.0, SVG Export Plug-In . SVG Version: 6.00 Build 0)  -->
<svg version="1.1" id="图层_1" xmlns="http://www.w3.org/2000/svg" xmlns:xlink="http://www.w3.org/1999/xlink" x="0px" y="0px"
	 viewBox="0 0 20 20" style="enable-background:new 0 0 20 20;" xml:space="preserve">
<g>
	<polygon points="0,0 0,15.8 1.5,15.8 1.5,1.6 18.4,1.6 18.4,18.5 4.2,18.5 4.2,20 20,20 20,0 	"/>
	<path d="M10.6,15.4L10.6,15.4c1.7,0,3.1-0.6,4.3-1.8c1.2-1.2,1.8-2.6,1.8-4.3c0-1.7-0.6-3.1-1.8-4.3c-1.2-1.2-2.6-1.8-4.3-1.8
		C8.9,3.2,7.5,3.8,6.3,5S4.5,7.6,4.5,9.3c0,1.4,0.5,2.7,1.4,3.9l-5.7,5.7L1,19.8l5.7-5.7C7.9,15,9.2,15.4,10.6,15.4z M5.8,9.3
		c0-1.3,0.5-2.5,1.4-3.4C8.1,5,9.3,4.5,10.6,4.5c1.3,0,2.5,0.5,3.4,1.4c0.9,0.9,1.4,2.1,1.4,3.4c0,1.3-0.5,2.5-1.4,3.4
		c-0.9,0.9-2.1,1.4-3.4,1.4c-1.3,0-2.5-0.5-3.4-1.4C6.3,11.7,5.8,10.6,5.8,9.3z"/>
</g>
</svg>
