<?xml version="1.0" encoding="utf-8"?>
<!-- Generator: Adobe Illustrator 21.0.0, SVG Export Plug-In . SVG Version: 6.00 Build 0)  -->
<svg version="1.1" id="图层_1" xmlns="http://www.w3.org/2000/svg" xmlns:xlink="http://www.w3.org/1999/xlink" x="0px" y="0px"
	 viewBox="0 0 32 31" style="enable-background:new 0 0 32 31;" xml:space="preserve">
<style type="text/css">
	.st0{fill:#CB2525;}
</style>
<path class="st0" d="M20.5,28.9c-6.1,0-11.1-6-11.1-13.3s5-13.3,11.1-13.3c2.2,0,4.3,0.8,6.1,2.2C23.8,1.7,20,0,15.9,0
	C7.5,0,0.6,6.9,0.6,15.5S7.5,31,15.9,31c3.7,0,7.2-1.4,9.8-3.6C24.1,28.4,22.4,28.9,20.5,28.9z"/>
<path class="st0" d="M20.6,2.7c-1.6,0-3.1,0.4-4.5,1.2c0.5-0.1,1-0.2,1.5-0.2C22.3,3.7,26,9,26,15.6s-3.8,11.9-8.4,11.9
	c-0.5,0-1-0.1-1.5-0.2c1.4,0.8,2.9,1.2,4.5,1.2c5.9,0,10.8-5.8,10.8-12.9S26.5,2.7,20.6,2.7z"/>
</svg>
