<?xml version="1.0" encoding="utf-8"?>
<!-- Generator: Adobe Illustrator 21.0.0, SVG Export Plug-In . SVG Version: 6.00 Build 0)  -->
<svg version="1.0" id="图层_1" xmlns="http://www.w3.org/2000/svg" xmlns:xlink="http://www.w3.org/1999/xlink" x="0px" y="0px"
	 viewBox="0 0 1024 1024" style="enable-background:new 0 0 1024 1024;" xml:space="preserve">
<g>
	<path style="fill:#CB2525;" d="M296,517c0-239.2,164.3-436.5,364-436.5c72.5,0,140.9,26.6,200.5,72.5
		C768.7,60.4,643.9,4.8,509.4,4.8C234,4.8,7.8,231.1,7.8,513.8s226.3,508.9,501.7,508.9c121.6,0,235.9-45.9,321.3-118.4
		c-52.3,33-107.9,49.1-170.7,49.1C460.3,953.4,296,756.1,296,517z"/>
	<path style="fill:#B21616;" d="M666,104.5c-51,0-98.8,12.5-143.5,38.4c15.7-3.1,32.2-6.3,47.8-6.3c150.6,0,268.2,169.4,268.2,380.3
		S716.9,897.3,570.3,897.3c-15.7,0-32.2-3.1-47.8-6.3c44.7,25.9,92.5,38.4,143.5,38.4c188.2,0,345-185.1,345-412.5
		S854.9,104.5,666,104.5z"/>
</g>
</svg>
